<?xml version="1.0" encoding="UTF-8" standalone="no"?>
<!DOCTYPE svg PUBLIC "-//W3C//DTD SVG 1.1//EN" "http://www.w3.org/Graphics/SVG/1.1/DTD/svg11.dtd">
<!-- 由 Microsoft Visio, SVG Export 生成 Recovery.svg Page-1 -->
<svg xmlns="http://www.w3.org/2000/svg" xmlns:xlink="http://www.w3.org/1999/xlink" xmlns:ev="http://www.w3.org/2001/xml-events"
		xmlns:v="http://schemas.microsoft.com/visio/2003/SVGExtensions/" width="11.6929in" height="8.26772in"
		viewBox="0 0 841.89 595.276" xml:space="preserve" color-interpolation-filters="sRGB" class="st10">
	<v:documentProperties v:langID="2052" v:metric="true" v:viewMarkup="false">
		<v:userDefs>
			<v:ud v:nameU="msvSubprocessMaster" v:prompt="" v:val="VT4(Rectangle)"/>
			<v:ud v:nameU="msvNoAutoConnect" v:val="VT0(1):26"/>
		</v:userDefs>
	</v:documentProperties>

	<style type="text/css">
	<![CDATA[
		.st1 {visibility:visible}
		.st2 {fill:#5b9bd5;fill-opacity:0.22;filter:url(#filter_2);stroke:#5b9bd5;stroke-opacity:0.22}
		.st3 {fill:#5b9bd5;stroke:#c7c8c8;stroke-width:0.25}
		.st4 {fill:#feffff;font-family:Calibri;font-size:0.499992em}
		.st5 {fill:#70ad47;stroke:#c7c8c8;stroke-width:0.25}
		.st6 {fill:#ffd965;stroke:#c7c8c8;stroke-width:0.25}
		.st7 {fill:#feffff;font-family:Calibri;font-size:0.333344em}
		.st8 {fill:#5b9bd5;fill-opacity:0.25;filter:url(#filter_2);stroke:#5b9bd5;stroke-opacity:0.25}
		.st9 {fill:#4f87bb;stroke:#40709c;stroke-width:0.75}
		.st10 {fill:none;fill-rule:evenodd;font-size:12px;overflow:visible;stroke-linecap:square;stroke-miterlimit:3}
	]]>
	</style>

	<defs id="Filters">
		<filter id="filter_2">
			<feGaussianBlur stdDeviation="2"/>
		</filter>
	</defs>
	<g v:mID="0" v:index="1" v:groupContext="foregroundPage">
		<v:userDefs>
			<v:ud v:nameU="msvThemeOrder" v:val="VT0(0):26"/>
		</v:userDefs>
		<title>页-1</title>
		<v:pageProperties v:drawingScale="0.0393701" v:pageScale="0.0393701" v:drawingUnits="24" v:shadowOffsetX="8.50394"
				v:shadowOffsetY="-8.50394"/>
		<g id="shape1-1" v:mID="1" v:groupContext="shape" transform="translate(147.402,-416.824)">
			<title>矩形</title>
			<desc>COURSE_NAME(CHAR)</desc>
			<v:userDefs>
				<v:ud v:nameU="visVersion" v:val="VT0(15):26"/>
			</v:userDefs>
			<v:textBlock v:margins="rect(4,4,4,4)" v:tabSpace="42.5197"/>
			<v:textRect cx="43.2331" cy="585.774" width="86.47" height="19.0024"/>
			<g id="shadow1-2" v:groupContext="shadow" v:shadowOffsetX="0.345598" v:shadowOffsetY="-1.97279" v:shadowType="1"
					transform="matrix(1,0,0,1,0.345598,1.97279)" class="st1">
				<rect x="0" y="576.273" width="86.4663" height="19.0024" class="st2"/>
			</g>
			<rect x="0" y="576.273" width="86.4663" height="19.0024" class="st3"/>
			<text x="15.4" y="587.57" class="st4" v:langID="2052"><v:paragraph v:horizAlign="1"/><v:tabList/>COURSE_NAME(CHAR)</text>		</g>
		<g id="shape2-7" v:mID="2" v:groupContext="shape" transform="translate(233.83,-416.824)">
			<title>矩形.2</title>
			<desc>COURSE_ID(INTEGER)</desc>
			<v:userDefs>
				<v:ud v:nameU="visVersion" v:val="VT0(15):26"/>
			</v:userDefs>
			<v:textBlock v:margins="rect(4,4,4,4)" v:tabSpace="42.5197"/>
			<v:textRect cx="43.2331" cy="585.774" width="86.47" height="19.0024"/>
			<g id="shadow2-8" v:groupContext="shadow" v:shadowOffsetX="0.345598" v:shadowOffsetY="-1.97279" v:shadowType="1"
					transform="matrix(1,0,0,1,0.345598,1.97279)" class="st1">
				<rect x="0" y="576.273" width="86.4663" height="19.0024" class="st2"/>
			</g>
			<rect x="0" y="576.273" width="86.4663" height="19.0024" class="st5"/>
			<text x="16.73" y="587.57" class="st4" v:langID="2052"><v:paragraph v:horizAlign="1"/><v:tabList/>COURSE_ID(INTEGER)</text>		</g>
		<g id="shape4-13" v:mID="4" v:groupContext="shape" transform="translate(147.402,-412.441)">
			<title>矩形.4</title>
			<v:userDefs>
				<v:ud v:nameU="visVersion" v:val="VT0(15):26"/>
			</v:userDefs>
			<v:textBlock v:margins="rect(4,4,4,4)" v:tabSpace="42.5197"/>
			<g id="shadow4-14" v:groupContext="shadow" v:shadowOffsetX="0.345598" v:shadowOffsetY="-1.97279" v:shadowType="1"
					transform="matrix(1,0,0,1,0.345598,1.97279)" class="st1">
				<rect x="0" y="590.847" width="86.4663" height="4.42866" class="st2"/>
			</g>
			<rect x="0" y="590.847" width="86.4663" height="4.42866" class="st6"/>
		</g>
		<g id="shape5-18" v:mID="5" v:groupContext="shape" transform="translate(233.849,-412.441)">
			<title>矩形.5</title>
			<v:userDefs>
				<v:ud v:nameU="visVersion" v:val="VT0(15):26"/>
			</v:userDefs>
			<v:textBlock v:margins="rect(4,4,4,4)" v:tabSpace="42.5197"/>
			<g id="shadow5-19" v:groupContext="shadow" v:shadowOffsetX="0.345598" v:shadowOffsetY="-1.97279" v:shadowType="1"
					transform="matrix(1,0,0,1,0.345598,1.97279)" class="st1">
				<rect x="0" y="590.847" width="86.4663" height="4.42866" class="st2"/>
			</g>
			<rect x="0" y="590.847" width="86.4663" height="4.42866" class="st6"/>
		</g>
		<g id="shape6-23" v:mID="6" v:groupContext="shape" transform="translate(147.402,-408.012)">
			<title>矩形.6</title>
			<v:userDefs>
				<v:ud v:nameU="visVersion" v:val="VT0(15):26"/>
			</v:userDefs>
			<v:textBlock v:margins="rect(4,4,4,4)" v:tabSpace="42.5197"/>
			<g id="shadow6-24" v:groupContext="shadow" v:shadowOffsetX="0.345598" v:shadowOffsetY="-1.97279" v:shadowType="1"
					transform="matrix(1,0,0,1,0.345598,1.97279)" class="st1">
				<rect x="0" y="590.847" width="86.4663" height="4.42866" class="st2"/>
			</g>
			<rect x="0" y="590.847" width="86.4663" height="4.42866" class="st6"/>
		</g>
		<g id="shape7-28" v:mID="7" v:groupContext="shape" transform="translate(233.849,-408.012)">
			<title>矩形.7</title>
			<v:userDefs>
				<v:ud v:nameU="visVersion" v:val="VT0(15):26"/>
			</v:userDefs>
			<v:textBlock v:margins="rect(4,4,4,4)" v:tabSpace="42.5197"/>
			<g id="shadow7-29" v:groupContext="shadow" v:shadowOffsetX="0.345598" v:shadowOffsetY="-1.97279" v:shadowType="1"
					transform="matrix(1,0,0,1,0.345598,1.97279)" class="st1">
				<rect x="0" y="590.847" width="86.4663" height="4.42866" class="st2"/>
			</g>
			<rect x="0" y="590.847" width="86.4663" height="4.42866" class="st6"/>
		</g>
		<g id="shape8-33" v:mID="8" v:groupContext="shape" transform="translate(147.402,-403.937)">
			<title>矩形.8</title>
			<desc>...</desc>
			<v:userDefs>
				<v:ud v:nameU="visVersion" v:val="VT0(15):26"/>
			</v:userDefs>
			<v:textBlock v:margins="rect(4,4,4,4)" v:tabSpace="42.5197"/>
			<v:textRect cx="43.2331" cy="593.061" width="86.47" height="4.42866"/>
			<g id="shadow8-34" v:groupContext="shadow" v:shadowOffsetX="0.345598" v:shadowOffsetY="-1.97279" v:shadowType="1"
					transform="matrix(1,0,0,1,0.345598,1.97279)" class="st1">
				<rect x="0" y="590.847" width="86.4663" height="4.42866" class="st2"/>
			</g>
			<rect x="0" y="590.847" width="86.4663" height="4.42866" class="st6"/>
			<text x="40.96" y="594.86" class="st4" v:langID="2052"><v:paragraph v:horizAlign="1"/><v:tabList/>...</text>		</g>
		<g id="shape9-39" v:mID="9" v:groupContext="shape" transform="translate(233.849,-403.937)">
			<title>矩形.9</title>
			<desc>...</desc>
			<v:userDefs>
				<v:ud v:nameU="visVersion" v:val="VT0(15):26"/>
			</v:userDefs>
			<v:textBlock v:margins="rect(4,4,4,4)" v:tabSpace="42.5197"/>
			<v:textRect cx="43.2331" cy="593.061" width="86.47" height="4.42866"/>
			<g id="shadow9-40" v:groupContext="shadow" v:shadowOffsetX="0.345598" v:shadowOffsetY="-1.97279" v:shadowType="1"
					transform="matrix(1,0,0,1,0.345598,1.97279)" class="st1">
				<rect x="0" y="590.847" width="86.4663" height="4.42866" class="st2"/>
			</g>
			<rect x="0" y="590.847" width="86.4663" height="4.42866" class="st6"/>
			<text x="40.96" y="594.86" class="st4" v:langID="2052"><v:paragraph v:horizAlign="1"/><v:tabList/>...</text>		</g>
		<g id="shape18-45" v:mID="18" v:groupContext="shape" transform="translate(148.009,-480.806)">
			<title>矩形.18</title>
			<desc>DET</desc>
			<v:userDefs>
				<v:ud v:nameU="visVersion" v:val="VT0(15):26"/>
			</v:userDefs>
			<v:textBlock v:margins="rect(4,4,4,4)" v:tabSpace="42.5197"/>
			<v:textRect cx="10.8071" cy="585.774" width="21.62" height="19.0024"/>
			<g id="shadow18-46" v:groupContext="shadow" v:shadowOffsetX="0.345598" v:shadowOffsetY="-1.97279" v:shadowType="1"
					transform="matrix(1,0,0,1,0.345598,1.97279)" class="st1">
				<rect x="0" y="576.273" width="21.6142" height="19.0024" class="st2"/>
			</g>
			<rect x="0" y="576.273" width="21.6142" height="19.0024" class="st3"/>
			<text x="7.63" y="586.97" class="st7" v:langID="2052"><v:paragraph v:horizAlign="1"/><v:tabList/>DET</text>		</g>
		<g id="shape19-51" v:mID="19" v:groupContext="shape" transform="translate(234.427,-480.806)">
			<title>矩形.19</title>
			<desc>DET</desc>
			<v:userDefs>
				<v:ud v:nameU="visVersion" v:val="VT0(15):26"/>
			</v:userDefs>
			<v:textBlock v:margins="rect(4,4,4,4)" v:tabSpace="42.5197"/>
			<v:textRect cx="10.8071" cy="585.774" width="21.62" height="19.0024"/>
			<g id="shadow19-52" v:groupContext="shadow" v:shadowOffsetX="0.345598" v:shadowOffsetY="-1.97279" v:shadowType="1"
					transform="matrix(1,0,0,1,0.345598,1.97279)" class="st1">
				<rect x="0" y="576.273" width="21.6142" height="19.0024" class="st2"/>
			</g>
			<rect x="0" y="576.273" width="21.6142" height="19.0024" class="st5"/>
			<text x="7.63" y="586.97" class="st7" v:langID="2052"><v:paragraph v:horizAlign="1"/><v:tabList/>DET</text>		</g>
		<g id="shape20-57" v:mID="20" v:groupContext="shape" transform="translate(148.009,-476.423)">
			<title>矩形.20</title>
			<v:userDefs>
				<v:ud v:nameU="visVersion" v:val="VT0(15):26"/>
			</v:userDefs>
			<v:textBlock v:margins="rect(4,4,4,4)" v:tabSpace="42.5197"/>
			<g id="shadow20-58" v:groupContext="shadow" v:shadowOffsetX="0.345598" v:shadowOffsetY="-1.97279" v:shadowType="1"
					transform="matrix(1,0,0,1,0.345598,1.97279)" class="st1">
				<rect x="0" y="590.847" width="21.685" height="4.42866" class="st2"/>
			</g>
			<rect x="0" y="590.847" width="21.685" height="4.42866" class="st6"/>
		</g>
		<g id="shape22-62" v:mID="22" v:groupContext="shape" transform="translate(148.009,-471.994)">
			<title>矩形.22</title>
			<v:userDefs>
				<v:ud v:nameU="visVersion" v:val="VT0(15):26"/>
			</v:userDefs>
			<v:textBlock v:margins="rect(4,4,4,4)" v:tabSpace="42.5197"/>
			<g id="shadow22-63" v:groupContext="shadow" v:shadowOffsetX="0.345598" v:shadowOffsetY="-1.97279" v:shadowType="1"
					transform="matrix(1,0,0,1,0.345598,1.97279)" class="st1">
				<rect x="0" y="590.847" width="21.685" height="4.42866" class="st2"/>
			</g>
			<rect x="0" y="590.847" width="21.685" height="4.42866" class="st6"/>
		</g>
		<g id="shape24-67" v:mID="24" v:groupContext="shape" transform="translate(148.009,-467.919)">
			<title>矩形.24</title>
			<desc>...</desc>
			<v:userDefs>
				<v:ud v:nameU="visVersion" v:val="VT0(15):26"/>
			</v:userDefs>
			<v:textBlock v:margins="rect(4,4,4,4)" v:tabSpace="42.5197"/>
			<v:textRect cx="10.8425" cy="593.061" width="21.69" height="4.42866"/>
			<g id="shadow24-68" v:groupContext="shadow" v:shadowOffsetX="0.345598" v:shadowOffsetY="-1.97279" v:shadowType="1"
					transform="matrix(1,0,0,1,0.345598,1.97279)" class="st1">
				<rect x="0" y="590.847" width="21.685" height="4.42866" class="st2"/>
			</g>
			<rect x="0" y="590.847" width="21.685" height="4.42866" class="st6"/>
			<text x="8.57" y="594.86" class="st4" v:langID="2052"><v:paragraph v:horizAlign="1"/><v:tabList/>...</text>		</g>
		<g id="shape26-73" v:mID="26" v:groupContext="shape" transform="translate(169.623,-480.649)">
			<title>矩形.26</title>
			<desc>OPE</desc>
			<v:userDefs>
				<v:ud v:nameU="visVersion" v:val="VT0(15):26"/>
			</v:userDefs>
			<v:textBlock v:margins="rect(4,4,4,4)" v:tabSpace="42.5197"/>
			<v:textRect cx="10.8071" cy="585.774" width="21.62" height="19.0024"/>
			<g id="shadow26-74" v:groupContext="shadow" v:shadowOffsetX="0.345598" v:shadowOffsetY="-1.97279" v:shadowType="1"
					transform="matrix(1,0,0,1,0.345598,1.97279)" class="st1">
				<rect x="0" y="576.273" width="21.6142" height="19.0024" class="st2"/>
			</g>
			<rect x="0" y="576.273" width="21.6142" height="19.0024" class="st3"/>
			<text x="7.47" y="586.97" class="st7" v:langID="2052"><v:paragraph v:horizAlign="1"/><v:tabList/>OPE</text>		</g>
		<g id="shape27-79" v:mID="27" v:groupContext="shape" transform="translate(191.221,-480.806)">
			<title>矩形.27</title>
			<desc>SEARCH</desc>
			<v:userDefs>
				<v:ud v:nameU="visVersion" v:val="VT0(15):26"/>
			</v:userDefs>
			<v:textBlock v:margins="rect(4,4,4,4)" v:tabSpace="42.5197"/>
			<v:textRect cx="10.8071" cy="585.774" width="21.62" height="19.0024"/>
			<g id="shadow27-80" v:groupContext="shadow" v:shadowOffsetX="0.345598" v:shadowOffsetY="-1.97279" v:shadowType="1"
					transform="matrix(1,0,0,1,0.345598,1.97279)" class="st1">
				<rect x="0" y="576.273" width="21.6142" height="19.0024" class="st2"/>
			</g>
			<rect x="0" y="576.273" width="21.6142" height="19.0024" class="st3"/>
			<text x="4.36" y="586.97" class="st7" v:langID="2052"><v:paragraph v:horizAlign="1"/><v:tabList/>SEARCH</text>		</g>
		<g id="shape28-85" v:mID="28" v:groupContext="shape" transform="translate(212.852,-480.806)">
			<title>矩形.28</title>
			<desc>IV</desc>
			<v:userDefs>
				<v:ud v:nameU="visVersion" v:val="VT0(15):26"/>
			</v:userDefs>
			<v:textBlock v:margins="rect(4,4,4,4)" v:tabSpace="42.5197"/>
			<v:textRect cx="10.8071" cy="585.774" width="21.62" height="19.0024"/>
			<g id="shadow28-86" v:groupContext="shadow" v:shadowOffsetX="0.345598" v:shadowOffsetY="-1.97279" v:shadowType="1"
					transform="matrix(1,0,0,1,0.345598,1.97279)" class="st1">
				<rect x="0" y="576.273" width="21.6142" height="19.0024" class="st2"/>
			</g>
			<rect x="0" y="576.273" width="21.6142" height="19.0024" class="st3"/>
			<text x="9.17" y="586.97" class="st7" v:langID="2052"><v:paragraph v:horizAlign="1"/><v:tabList/>IV</text>		</g>
		<g id="shape29-91" v:mID="29" v:groupContext="shape" transform="translate(256.08,-480.702)">
			<title>矩形.29</title>
			<desc>OPE</desc>
			<v:userDefs>
				<v:ud v:nameU="visVersion" v:val="VT0(15):26"/>
			</v:userDefs>
			<v:textBlock v:margins="rect(4,4,4,4)" v:tabSpace="42.5197"/>
			<v:textRect cx="10.8071" cy="585.774" width="21.62" height="19.0024"/>
			<g id="shadow29-92" v:groupContext="shadow" v:shadowOffsetX="0.345598" v:shadowOffsetY="-1.97279" v:shadowType="1"
					transform="matrix(1,0,0,1,0.345598,1.97279)" class="st1">
				<rect x="0" y="576.273" width="21.6142" height="19.0024" class="st2"/>
			</g>
			<rect x="0" y="576.273" width="21.6142" height="19.0024" class="st5"/>
			<text x="7.47" y="586.97" class="st7" v:langID="2052"><v:paragraph v:horizAlign="1"/><v:tabList/>OPE</text>		</g>
		<g id="shape30-97" v:mID="30" v:groupContext="shape" transform="translate(277.684,-480.852)">
			<title>矩形.30</title>
			<desc>HOM</desc>
			<v:userDefs>
				<v:ud v:nameU="visVersion" v:val="VT0(15):26"/>
			</v:userDefs>
			<v:textBlock v:margins="rect(4,4,4,4)" v:tabSpace="42.5197"/>
			<v:textRect cx="10.8071" cy="585.774" width="21.62" height="19.0024"/>
			<g id="shadow30-98" v:groupContext="shadow" v:shadowOffsetX="0.345598" v:shadowOffsetY="-1.97279" v:shadowType="1"
					transform="matrix(1,0,0,1,0.345598,1.97279)" class="st1">
				<rect x="0" y="576.273" width="21.6142" height="19.0024" class="st2"/>
			</g>
			<rect x="0" y="576.273" width="21.6142" height="19.0024" class="st5"/>
			<text x="6.53" y="586.97" class="st7" v:langID="2052"><v:paragraph v:horizAlign="1"/><v:tabList/>HOM</text>		</g>
		<g id="shape31-103" v:mID="31" v:groupContext="shape" transform="translate(299.308,-480.852)">
			<title>矩形.31</title>
			<desc>IV</desc>
			<v:userDefs>
				<v:ud v:nameU="visVersion" v:val="VT0(15):26"/>
			</v:userDefs>
			<v:textBlock v:margins="rect(4,4,4,4)" v:tabSpace="42.5197"/>
			<v:textRect cx="10.8071" cy="585.774" width="21.62" height="19.0024"/>
			<g id="shadow31-104" v:groupContext="shadow" v:shadowOffsetX="0.345598" v:shadowOffsetY="-1.97279" v:shadowType="1"
					transform="matrix(1,0,0,1,0.345598,1.97279)" class="st1">
				<rect x="0" y="576.273" width="21.6142" height="19.0024" class="st2"/>
			</g>
			<rect x="0" y="576.273" width="21.6142" height="19.0024" class="st5"/>
			<text x="9.17" y="586.97" class="st7" v:langID="2052"><v:paragraph v:horizAlign="1"/><v:tabList/>IV</text>		</g>
		<g id="shape33-109" v:mID="33" v:groupContext="shape" transform="translate(169.616,-476.22)">
			<title>矩形.33</title>
			<v:userDefs>
				<v:ud v:nameU="visVersion" v:val="VT0(15):26"/>
			</v:userDefs>
			<v:textBlock v:margins="rect(4,4,4,4)" v:tabSpace="42.5197"/>
			<g id="shadow33-110" v:groupContext="shadow" v:shadowOffsetX="0.345598" v:shadowOffsetY="-1.97279" v:shadowType="1"
					transform="matrix(1,0,0,1,0.345598,1.97279)" class="st1">
				<rect x="0" y="590.847" width="21.685" height="4.42866" class="st2"/>
			</g>
			<rect x="0" y="590.847" width="21.685" height="4.42866" class="st6"/>
		</g>
		<g id="shape34-114" v:mID="34" v:groupContext="shape" transform="translate(169.616,-471.792)">
			<title>矩形.34</title>
			<v:userDefs>
				<v:ud v:nameU="visVersion" v:val="VT0(15):26"/>
			</v:userDefs>
			<v:textBlock v:margins="rect(4,4,4,4)" v:tabSpace="42.5197"/>
			<g id="shadow34-115" v:groupContext="shadow" v:shadowOffsetX="0.345598" v:shadowOffsetY="-1.97279" v:shadowType="1"
					transform="matrix(1,0,0,1,0.345598,1.97279)" class="st1">
				<rect x="0" y="590.847" width="21.685" height="4.42866" class="st2"/>
			</g>
			<rect x="0" y="590.847" width="21.685" height="4.42866" class="st6"/>
		</g>
		<g id="shape35-119" v:mID="35" v:groupContext="shape" transform="translate(169.616,-467.717)">
			<title>矩形.35</title>
			<desc>...</desc>
			<v:userDefs>
				<v:ud v:nameU="visVersion" v:val="VT0(15):26"/>
			</v:userDefs>
			<v:textBlock v:margins="rect(4,4,4,4)" v:tabSpace="42.5197"/>
			<v:textRect cx="10.8425" cy="593.061" width="21.69" height="4.42866"/>
			<g id="shadow35-120" v:groupContext="shadow" v:shadowOffsetX="0.345598" v:shadowOffsetY="-1.97279" v:shadowType="1"
					transform="matrix(1,0,0,1,0.345598,1.97279)" class="st1">
				<rect x="0" y="590.847" width="21.685" height="4.42866" class="st2"/>
			</g>
			<rect x="0" y="590.847" width="21.685" height="4.42866" class="st6"/>
			<text x="8.57" y="594.86" class="st4" v:langID="2052"><v:paragraph v:horizAlign="1"/><v:tabList/>...</text>		</g>
		<g id="shape36-125" v:mID="36" v:groupContext="shape" transform="translate(191.222,-476.423)">
			<title>矩形.36</title>
			<v:userDefs>
				<v:ud v:nameU="visVersion" v:val="VT0(15):26"/>
			</v:userDefs>
			<v:textBlock v:margins="rect(4,4,4,4)" v:tabSpace="42.5197"/>
			<g id="shadow36-126" v:groupContext="shadow" v:shadowOffsetX="0.345598" v:shadowOffsetY="-1.97279" v:shadowType="1"
					transform="matrix(1,0,0,1,0.345598,1.97279)" class="st1">
				<rect x="0" y="590.847" width="21.685" height="4.42866" class="st2"/>
			</g>
			<rect x="0" y="590.847" width="21.685" height="4.42866" class="st6"/>
		</g>
		<g id="shape37-130" v:mID="37" v:groupContext="shape" transform="translate(191.222,-471.994)">
			<title>矩形.37</title>
			<v:userDefs>
				<v:ud v:nameU="visVersion" v:val="VT0(15):26"/>
			</v:userDefs>
			<v:textBlock v:margins="rect(4,4,4,4)" v:tabSpace="42.5197"/>
			<g id="shadow37-131" v:groupContext="shadow" v:shadowOffsetX="0.345598" v:shadowOffsetY="-1.97279" v:shadowType="1"
					transform="matrix(1,0,0,1,0.345598,1.97279)" class="st1">
				<rect x="0" y="590.847" width="21.685" height="4.42866" class="st2"/>
			</g>
			<rect x="0" y="590.847" width="21.685" height="4.42866" class="st6"/>
		</g>
		<g id="shape38-135" v:mID="38" v:groupContext="shape" transform="translate(191.222,-467.919)">
			<title>矩形.38</title>
			<desc>...</desc>
			<v:userDefs>
				<v:ud v:nameU="visVersion" v:val="VT0(15):26"/>
			</v:userDefs>
			<v:textBlock v:margins="rect(4,4,4,4)" v:tabSpace="42.5197"/>
			<v:textRect cx="10.8425" cy="593.061" width="21.69" height="4.42866"/>
			<g id="shadow38-136" v:groupContext="shadow" v:shadowOffsetX="0.345598" v:shadowOffsetY="-1.97279" v:shadowType="1"
					transform="matrix(1,0,0,1,0.345598,1.97279)" class="st1">
				<rect x="0" y="590.847" width="21.685" height="4.42866" class="st2"/>
			</g>
			<rect x="0" y="590.847" width="21.685" height="4.42866" class="st6"/>
			<text x="8.57" y="594.86" class="st4" v:langID="2052"><v:paragraph v:horizAlign="1"/><v:tabList/>...</text>		</g>
		<g id="shape39-141" v:mID="39" v:groupContext="shape" transform="translate(212.833,-476.423)">
			<title>矩形.39</title>
			<v:userDefs>
				<v:ud v:nameU="visVersion" v:val="VT0(15):26"/>
			</v:userDefs>
			<v:textBlock v:margins="rect(4,4,4,4)" v:tabSpace="42.5197"/>
			<g id="shadow39-142" v:groupContext="shadow" v:shadowOffsetX="0.345598" v:shadowOffsetY="-1.97279" v:shadowType="1"
					transform="matrix(1,0,0,1,0.345598,1.97279)" class="st1">
				<rect x="0" y="590.847" width="21.685" height="4.42866" class="st2"/>
			</g>
			<rect x="0" y="590.847" width="21.685" height="4.42866" class="st6"/>
		</g>
		<g id="shape40-146" v:mID="40" v:groupContext="shape" transform="translate(212.833,-471.994)">
			<title>矩形.40</title>
			<v:userDefs>
				<v:ud v:nameU="visVersion" v:val="VT0(15):26"/>
			</v:userDefs>
			<v:textBlock v:margins="rect(4,4,4,4)" v:tabSpace="42.5197"/>
			<g id="shadow40-147" v:groupContext="shadow" v:shadowOffsetX="0.345598" v:shadowOffsetY="-1.97279" v:shadowType="1"
					transform="matrix(1,0,0,1,0.345598,1.97279)" class="st1">
				<rect x="0" y="590.847" width="21.685" height="4.42866" class="st2"/>
			</g>
			<rect x="0" y="590.847" width="21.685" height="4.42866" class="st6"/>
		</g>
		<g id="shape41-151" v:mID="41" v:groupContext="shape" transform="translate(212.833,-467.919)">
			<title>矩形.41</title>
			<desc>...</desc>
			<v:userDefs>
				<v:ud v:nameU="visVersion" v:val="VT0(15):26"/>
			</v:userDefs>
			<v:textBlock v:margins="rect(4,4,4,4)" v:tabSpace="42.5197"/>
			<v:textRect cx="10.8425" cy="593.061" width="21.69" height="4.42866"/>
			<g id="shadow41-152" v:groupContext="shadow" v:shadowOffsetX="0.345598" v:shadowOffsetY="-1.97279" v:shadowType="1"
					transform="matrix(1,0,0,1,0.345598,1.97279)" class="st1">
				<rect x="0" y="590.847" width="21.685" height="4.42866" class="st2"/>
			</g>
			<rect x="0" y="590.847" width="21.685" height="4.42866" class="st6"/>
			<text x="8.57" y="594.86" class="st4" v:langID="2052"><v:paragraph v:horizAlign="1"/><v:tabList/>...</text>		</g>
		<g id="shape42-157" v:mID="42" v:groupContext="shape" transform="translate(234.514,-476.246)">
			<title>矩形.42</title>
			<v:userDefs>
				<v:ud v:nameU="visVersion" v:val="VT0(15):26"/>
			</v:userDefs>
			<v:textBlock v:margins="rect(4,4,4,4)" v:tabSpace="42.5197"/>
			<g id="shadow42-158" v:groupContext="shadow" v:shadowOffsetX="0.345598" v:shadowOffsetY="-1.97279" v:shadowType="1"
					transform="matrix(1,0,0,1,0.345598,1.97279)" class="st1">
				<rect x="0" y="590.847" width="21.685" height="4.42866" class="st2"/>
			</g>
			<rect x="0" y="590.847" width="21.685" height="4.42866" class="st6"/>
		</g>
		<g id="shape43-162" v:mID="43" v:groupContext="shape" transform="translate(234.514,-471.818)">
			<title>矩形.43</title>
			<v:userDefs>
				<v:ud v:nameU="visVersion" v:val="VT0(15):26"/>
			</v:userDefs>
			<v:textBlock v:margins="rect(4,4,4,4)" v:tabSpace="42.5197"/>
			<g id="shadow43-163" v:groupContext="shadow" v:shadowOffsetX="0.345598" v:shadowOffsetY="-1.97279" v:shadowType="1"
					transform="matrix(1,0,0,1,0.345598,1.97279)" class="st1">
				<rect x="0" y="590.847" width="21.685" height="4.42866" class="st2"/>
			</g>
			<rect x="0" y="590.847" width="21.685" height="4.42866" class="st6"/>
		</g>
		<g id="shape44-167" v:mID="44" v:groupContext="shape" transform="translate(234.514,-467.742)">
			<title>矩形.44</title>
			<desc>...</desc>
			<v:userDefs>
				<v:ud v:nameU="visVersion" v:val="VT0(15):26"/>
			</v:userDefs>
			<v:textBlock v:margins="rect(4,4,4,4)" v:tabSpace="42.5197"/>
			<v:textRect cx="10.8425" cy="593.061" width="21.69" height="4.42866"/>
			<g id="shadow44-168" v:groupContext="shadow" v:shadowOffsetX="0.345598" v:shadowOffsetY="-1.97279" v:shadowType="1"
					transform="matrix(1,0,0,1,0.345598,1.97279)" class="st1">
				<rect x="0" y="590.847" width="21.685" height="4.42866" class="st2"/>
			</g>
			<rect x="0" y="590.847" width="21.685" height="4.42866" class="st6"/>
			<text x="8.57" y="594.86" class="st4" v:langID="2052"><v:paragraph v:horizAlign="1"/><v:tabList/>...</text>		</g>
		<g id="shape45-173" v:mID="45" v:groupContext="shape" transform="translate(256.248,-476.301)">
			<title>矩形.45</title>
			<v:userDefs>
				<v:ud v:nameU="visVersion" v:val="VT0(15):26"/>
			</v:userDefs>
			<v:textBlock v:margins="rect(4,4,4,4)" v:tabSpace="42.5197"/>
			<g id="shadow45-174" v:groupContext="shadow" v:shadowOffsetX="0.345598" v:shadowOffsetY="-1.97279" v:shadowType="1"
					transform="matrix(1,0,0,1,0.345598,1.97279)" class="st1">
				<rect x="0" y="590.847" width="21.685" height="4.42866" class="st2"/>
			</g>
			<rect x="0" y="590.847" width="21.685" height="4.42866" class="st6"/>
		</g>
		<g id="shape46-178" v:mID="46" v:groupContext="shape" transform="translate(256.248,-471.873)">
			<title>矩形.46</title>
			<v:userDefs>
				<v:ud v:nameU="visVersion" v:val="VT0(15):26"/>
			</v:userDefs>
			<v:textBlock v:margins="rect(4,4,4,4)" v:tabSpace="42.5197"/>
			<g id="shadow46-179" v:groupContext="shadow" v:shadowOffsetX="0.345598" v:shadowOffsetY="-1.97279" v:shadowType="1"
					transform="matrix(1,0,0,1,0.345598,1.97279)" class="st1">
				<rect x="0" y="590.847" width="21.685" height="4.42866" class="st2"/>
			</g>
			<rect x="0" y="590.847" width="21.685" height="4.42866" class="st6"/>
		</g>
		<g id="shape47-183" v:mID="47" v:groupContext="shape" transform="translate(256.248,-467.797)">
			<title>矩形.47</title>
			<desc>...</desc>
			<v:userDefs>
				<v:ud v:nameU="visVersion" v:val="VT0(15):26"/>
			</v:userDefs>
			<v:textBlock v:margins="rect(4,4,4,4)" v:tabSpace="42.5197"/>
			<v:textRect cx="10.8425" cy="593.061" width="21.69" height="4.42866"/>
			<g id="shadow47-184" v:groupContext="shadow" v:shadowOffsetX="0.345598" v:shadowOffsetY="-1.97279" v:shadowType="1"
					transform="matrix(1,0,0,1,0.345598,1.97279)" class="st1">
				<rect x="0" y="590.847" width="21.685" height="4.42866" class="st2"/>
			</g>
			<rect x="0" y="590.847" width="21.685" height="4.42866" class="st6"/>
			<text x="8.57" y="594.86" class="st4" v:langID="2052"><v:paragraph v:horizAlign="1"/><v:tabList/>...</text>		</g>
		<g id="shape48-189" v:mID="48" v:groupContext="shape" transform="translate(277.858,-476.45)">
			<title>矩形.48</title>
			<v:userDefs>
				<v:ud v:nameU="visVersion" v:val="VT0(15):26"/>
			</v:userDefs>
			<v:textBlock v:margins="rect(4,4,4,4)" v:tabSpace="42.5197"/>
			<g id="shadow48-190" v:groupContext="shadow" v:shadowOffsetX="0.345598" v:shadowOffsetY="-1.97279" v:shadowType="1"
					transform="matrix(1,0,0,1,0.345598,1.97279)" class="st1">
				<rect x="0" y="590.847" width="21.685" height="4.42866" class="st2"/>
			</g>
			<rect x="0" y="590.847" width="21.685" height="4.42866" class="st6"/>
		</g>
		<g id="shape49-194" v:mID="49" v:groupContext="shape" transform="translate(277.858,-472.022)">
			<title>矩形.49</title>
			<v:userDefs>
				<v:ud v:nameU="visVersion" v:val="VT0(15):26"/>
			</v:userDefs>
			<v:textBlock v:margins="rect(4,4,4,4)" v:tabSpace="42.5197"/>
			<g id="shadow49-195" v:groupContext="shadow" v:shadowOffsetX="0.345598" v:shadowOffsetY="-1.97279" v:shadowType="1"
					transform="matrix(1,0,0,1,0.345598,1.97279)" class="st1">
				<rect x="0" y="590.847" width="21.685" height="4.42866" class="st2"/>
			</g>
			<rect x="0" y="590.847" width="21.685" height="4.42866" class="st6"/>
		</g>
		<g id="shape50-199" v:mID="50" v:groupContext="shape" transform="translate(277.858,-467.947)">
			<title>矩形.50</title>
			<desc>...</desc>
			<v:userDefs>
				<v:ud v:nameU="visVersion" v:val="VT0(15):26"/>
			</v:userDefs>
			<v:textBlock v:margins="rect(4,4,4,4)" v:tabSpace="42.5197"/>
			<v:textRect cx="10.8425" cy="593.061" width="21.69" height="4.42866"/>
			<g id="shadow50-200" v:groupContext="shadow" v:shadowOffsetX="0.345598" v:shadowOffsetY="-1.97279" v:shadowType="1"
					transform="matrix(1,0,0,1,0.345598,1.97279)" class="st1">
				<rect x="0" y="590.847" width="21.685" height="4.42866" class="st2"/>
			</g>
			<rect x="0" y="590.847" width="21.685" height="4.42866" class="st6"/>
			<text x="8.57" y="594.86" class="st4" v:langID="2052"><v:paragraph v:horizAlign="1"/><v:tabList/>...</text>		</g>
		<g id="shape51-205" v:mID="51" v:groupContext="shape" transform="translate(299.539,-476.498)">
			<title>矩形.51</title>
			<v:userDefs>
				<v:ud v:nameU="visVersion" v:val="VT0(15):26"/>
			</v:userDefs>
			<v:textBlock v:margins="rect(4,4,4,4)" v:tabSpace="42.5197"/>
			<g id="shadow51-206" v:groupContext="shadow" v:shadowOffsetX="0.345598" v:shadowOffsetY="-1.97279" v:shadowType="1"
					transform="matrix(1,0,0,1,0.345598,1.97279)" class="st1">
				<rect x="0" y="590.847" width="21.685" height="4.42866" class="st2"/>
			</g>
			<rect x="0" y="590.847" width="21.685" height="4.42866" class="st6"/>
		</g>
		<g id="shape52-210" v:mID="52" v:groupContext="shape" transform="translate(299.539,-472.069)">
			<title>矩形.52</title>
			<v:userDefs>
				<v:ud v:nameU="visVersion" v:val="VT0(15):26"/>
			</v:userDefs>
			<v:textBlock v:margins="rect(4,4,4,4)" v:tabSpace="42.5197"/>
			<g id="shadow52-211" v:groupContext="shadow" v:shadowOffsetX="0.345598" v:shadowOffsetY="-1.97279" v:shadowType="1"
					transform="matrix(1,0,0,1,0.345598,1.97279)" class="st1">
				<rect x="0" y="590.847" width="21.685" height="4.42866" class="st2"/>
			</g>
			<rect x="0" y="590.847" width="21.685" height="4.42866" class="st6"/>
		</g>
		<g id="shape53-215" v:mID="53" v:groupContext="shape" transform="translate(299.539,-467.994)">
			<title>矩形.53</title>
			<desc>...</desc>
			<v:userDefs>
				<v:ud v:nameU="visVersion" v:val="VT0(15):26"/>
			</v:userDefs>
			<v:textBlock v:margins="rect(4,4,4,4)" v:tabSpace="42.5197"/>
			<v:textRect cx="10.8425" cy="593.061" width="21.69" height="4.42866"/>
			<g id="shadow53-216" v:groupContext="shadow" v:shadowOffsetX="0.345598" v:shadowOffsetY="-1.97279" v:shadowType="1"
					transform="matrix(1,0,0,1,0.345598,1.97279)" class="st1">
				<rect x="0" y="590.847" width="21.685" height="4.42866" class="st2"/>
			</g>
			<rect x="0" y="590.847" width="21.685" height="4.42866" class="st6"/>
			<text x="8.57" y="594.86" class="st4" v:langID="2052"><v:paragraph v:horizAlign="1"/><v:tabList/>...</text>		</g>
		<g id="shape55-221" v:mID="55" v:groupContext="shape" transform="translate(194.201,-351.273)">
			<title>矩形.55</title>
			<desc>DET</desc>
			<v:userDefs>
				<v:ud v:nameU="visVersion" v:val="VT0(15):26"/>
			</v:userDefs>
			<v:textBlock v:margins="rect(4,4,4,4)" v:tabSpace="42.5197"/>
			<v:textRect cx="10.8425" cy="585.774" width="21.69" height="19.0024"/>
			<g id="shadow55-222" v:groupContext="shadow" v:shadowOffsetX="0.345598" v:shadowOffsetY="-1.97279" v:shadowType="1"
					transform="matrix(1,0,0,1,0.345598,1.97279)" class="st1">
				<rect x="0" y="576.273" width="21.685" height="19.0024" class="st2"/>
			</g>
			<rect x="0" y="576.273" width="21.685" height="19.0024" class="st3"/>
			<text x="7.66" y="586.97" class="st7" v:langID="2052"><v:paragraph v:horizAlign="1"/><v:tabList/>DET</text>		</g>
		<g id="shape56-227" v:mID="56" v:groupContext="shape" transform="translate(194.201,-346.89)">
			<title>矩形.56</title>
			<v:userDefs>
				<v:ud v:nameU="visVersion" v:val="VT0(15):26"/>
			</v:userDefs>
			<v:textBlock v:margins="rect(4,4,4,4)" v:tabSpace="42.5197"/>
			<g id="shadow56-228" v:groupContext="shadow" v:shadowOffsetX="0.345598" v:shadowOffsetY="-1.97279" v:shadowType="1"
					transform="matrix(1,0,0,1,0.345598,1.97279)" class="st1">
				<rect x="0" y="590.847" width="21.685" height="4.42866" class="st2"/>
			</g>
			<rect x="0" y="590.847" width="21.685" height="4.42866" class="st6"/>
		</g>
		<g id="shape57-232" v:mID="57" v:groupContext="shape" transform="translate(194.201,-342.461)">
			<title>矩形.57</title>
			<v:userDefs>
				<v:ud v:nameU="visVersion" v:val="VT0(15):26"/>
			</v:userDefs>
			<v:textBlock v:margins="rect(4,4,4,4)" v:tabSpace="42.5197"/>
			<g id="shadow57-233" v:groupContext="shadow" v:shadowOffsetX="0.345598" v:shadowOffsetY="-1.97279" v:shadowType="1"
					transform="matrix(1,0,0,1,0.345598,1.97279)" class="st1">
				<rect x="0" y="590.847" width="21.685" height="4.42866" class="st2"/>
			</g>
			<rect x="0" y="590.847" width="21.685" height="4.42866" class="st6"/>
		</g>
		<g id="shape58-237" v:mID="58" v:groupContext="shape" transform="translate(194.201,-338.386)">
			<title>矩形.58</title>
			<desc>...</desc>
			<v:userDefs>
				<v:ud v:nameU="visVersion" v:val="VT0(15):26"/>
			</v:userDefs>
			<v:textBlock v:margins="rect(4,4,4,4)" v:tabSpace="42.5197"/>
			<v:textRect cx="10.8425" cy="593.061" width="21.69" height="4.42866"/>
			<g id="shadow58-238" v:groupContext="shadow" v:shadowOffsetX="0.345598" v:shadowOffsetY="-1.97279" v:shadowType="1"
					transform="matrix(1,0,0,1,0.345598,1.97279)" class="st1">
				<rect x="0" y="590.847" width="21.685" height="4.42866" class="st2"/>
			</g>
			<rect x="0" y="590.847" width="21.685" height="4.42866" class="st6"/>
			<text x="8.57" y="594.86" class="st4" v:langID="2052"><v:paragraph v:horizAlign="1"/><v:tabList/>...</text>		</g>
		<g id="shape59-243" v:mID="59" v:groupContext="shape" transform="translate(244.772,-351.362)">
			<title>矩形.59</title>
			<desc>DET</desc>
			<v:userDefs>
				<v:ud v:nameU="visVersion" v:val="VT0(15):26"/>
			</v:userDefs>
			<v:textBlock v:margins="rect(4,4,4,4)" v:tabSpace="42.5197"/>
			<v:textRect cx="10.7991" cy="585.774" width="21.6" height="19.0024"/>
			<g id="shadow59-244" v:groupContext="shadow" v:shadowOffsetX="0.345598" v:shadowOffsetY="-1.97279" v:shadowType="1"
					transform="matrix(1,0,0,1,0.345598,1.97279)" class="st1">
				<rect x="0" y="576.273" width="21.5982" height="19.0024" class="st2"/>
			</g>
			<rect x="0" y="576.273" width="21.5982" height="19.0024" class="st5"/>
			<text x="7.62" y="586.97" class="st7" v:langID="2052"><v:paragraph v:horizAlign="1"/><v:tabList/>DET</text>		</g>
		<g id="shape60-249" v:mID="60" v:groupContext="shape" transform="translate(244.772,-346.801)">
			<title>矩形.60</title>
			<v:userDefs>
				<v:ud v:nameU="visVersion" v:val="VT0(15):26"/>
			</v:userDefs>
			<v:textBlock v:margins="rect(4,4,4,4)" v:tabSpace="42.5197"/>
			<g id="shadow60-250" v:groupContext="shadow" v:shadowOffsetX="0.345598" v:shadowOffsetY="-1.97279" v:shadowType="1"
					transform="matrix(1,0,0,1,0.345598,1.97279)" class="st1">
				<rect x="0" y="590.847" width="21.685" height="4.42866" class="st2"/>
			</g>
			<rect x="0" y="590.847" width="21.685" height="4.42866" class="st6"/>
		</g>
		<g id="shape61-254" v:mID="61" v:groupContext="shape" transform="translate(244.772,-342.373)">
			<title>矩形.61</title>
			<v:userDefs>
				<v:ud v:nameU="visVersion" v:val="VT0(15):26"/>
			</v:userDefs>
			<v:textBlock v:margins="rect(4,4,4,4)" v:tabSpace="42.5197"/>
			<g id="shadow61-255" v:groupContext="shadow" v:shadowOffsetX="0.345598" v:shadowOffsetY="-1.97279" v:shadowType="1"
					transform="matrix(1,0,0,1,0.345598,1.97279)" class="st1">
				<rect x="0" y="590.847" width="21.685" height="4.42866" class="st2"/>
			</g>
			<rect x="0" y="590.847" width="21.685" height="4.42866" class="st6"/>
		</g>
		<g id="shape62-259" v:mID="62" v:groupContext="shape" transform="translate(244.772,-338.297)">
			<title>矩形.62</title>
			<desc>...</desc>
			<v:userDefs>
				<v:ud v:nameU="visVersion" v:val="VT0(15):26"/>
			</v:userDefs>
			<v:textBlock v:margins="rect(4,4,4,4)" v:tabSpace="42.5197"/>
			<v:textRect cx="10.8425" cy="593.061" width="21.69" height="4.42866"/>
			<g id="shadow62-260" v:groupContext="shadow" v:shadowOffsetX="0.345598" v:shadowOffsetY="-1.97279" v:shadowType="1"
					transform="matrix(1,0,0,1,0.345598,1.97279)" class="st1">
				<rect x="0" y="590.847" width="21.685" height="4.42866" class="st2"/>
			</g>
			<rect x="0" y="590.847" width="21.685" height="4.42866" class="st6"/>
			<text x="8.57" y="594.86" class="st4" v:langID="2052"><v:paragraph v:horizAlign="1"/><v:tabList/>...</text>		</g>
		<g id="shape63-265" v:mID="63" v:groupContext="shape" transform="translate(825.324,277.08) rotate(91.6366)">
			<title>普通箭头.63</title>
			<v:userDefs>
				<v:ud v:nameU="visVersion" v:val="VT0(15):26"/>
				<v:ud v:nameU="ArrowType" v:prompt="" v:val="VT0(2):26"/>
			</v:userDefs>
			<g id="shadow63-266" v:groupContext="shadow" v:shadowOffsetX="0.345598" v:shadowOffsetY="-1.97279" v:shadowType="1"
					transform="matrix(1,0,0,1,1.96212,-0.4018)" class="st1">
				<path d="M0 595.28 L11.34 583.94 L11.34 589.61 L19.85 589.61 L19.85 595.28 L19.85 600.94 L11.34 600.94 L11.34 606.61
							 L0 595.28 Z" class="st8"/>
			</g>
			<path d="M0 595.28 L11.34 583.94 L11.34 589.61 L19.85 589.61 L19.85 595.28 L19.85 600.94 L11.34 600.94 L11.34 606.61
						 L0 595.28 Z" class="st9"/>
		</g>
		<g id="shape64-270" v:mID="64" v:groupContext="shape" transform="translate(194.669,-289.265)">
			<title>矩形.64</title>
			<desc>DETFILE</desc>
			<v:userDefs>
				<v:ud v:nameU="visVersion" v:val="VT0(15):26"/>
			</v:userDefs>
			<v:textBlock v:margins="rect(4,4,4,4)" v:tabSpace="42.5197"/>
			<v:textRect cx="10.8071" cy="585.774" width="21.62" height="19.0024"/>
			<g id="shadow64-271" v:groupContext="shadow" v:shadowOffsetX="0.345598" v:shadowOffsetY="-1.97279" v:shadowType="1"
					transform="matrix(1,0,0,1,0.345598,1.97279)" class="st1">
				<rect x="0" y="576.273" width="21.6142" height="19.0024" class="st2"/>
			</g>
			<rect x="0" y="576.273" width="21.6142" height="19.0024" class="st3"/>
			<text x="4.39" y="586.97" class="st7" v:langID="2052"><v:paragraph v:horizAlign="1"/><v:tabList/>DETFILE</text>		</g>
		<g id="shape68-276" v:mID="68" v:groupContext="shape" transform="translate(244.807,-289.265)">
			<title>矩形.68</title>
			<desc>DETFILE</desc>
			<v:userDefs>
				<v:ud v:nameU="visVersion" v:val="VT0(15):26"/>
			</v:userDefs>
			<v:textBlock v:margins="rect(4,4,4,4)" v:tabSpace="42.5197"/>
			<v:textRect cx="10.8071" cy="585.774" width="21.62" height="19.0024"/>
			<g id="shadow68-277" v:groupContext="shadow" v:shadowOffsetX="0.345598" v:shadowOffsetY="-1.97279" v:shadowType="1"
					transform="matrix(1,0,0,1,0.345598,1.97279)" class="st1">
				<rect x="0" y="576.273" width="21.6142" height="19.0024" class="st2"/>
			</g>
			<rect x="0" y="576.273" width="21.6142" height="19.0024" class="st5"/>
			<text x="4.39" y="586.97" class="st7" v:langID="2052"><v:paragraph v:horizAlign="1"/><v:tabList/>DETFILE</text>		</g>
		<g id="shape69-282" v:mID="69" v:groupContext="shape" transform="translate(825.915,215.426) rotate(91.6366)">
			<title>普通箭头.69</title>
			<v:userDefs>
				<v:ud v:nameU="visVersion" v:val="VT0(15):26"/>
				<v:ud v:nameU="ArrowType" v:prompt="" v:val="VT0(2):26"/>
			</v:userDefs>
			<g id="shadow69-283" v:groupContext="shadow" v:shadowOffsetX="0.345598" v:shadowOffsetY="-1.97279" v:shadowType="1"
					transform="matrix(1,0,0,1,1.96212,-0.4018)" class="st1">
				<path d="M0 595.28 L11.34 583.94 L11.34 589.61 L19.85 589.61 L19.85 595.28 L19.85 600.94 L11.34 600.94 L11.34 606.61
							 L0 595.28 Z" class="st8"/>
			</g>
			<path d="M0 595.28 L11.34 583.94 L11.34 589.61 L19.85 589.61 L19.85 595.28 L19.85 600.94 L11.34 600.94 L11.34 606.61
						 L0 595.28 Z" class="st9"/>
		</g>
		<g id="shape70-287" v:mID="70" v:groupContext="shape" transform="translate(829.458,148.812) rotate(91.6366)">
			<title>普通箭头.70</title>
			<v:userDefs>
				<v:ud v:nameU="visVersion" v:val="VT0(15):26"/>
				<v:ud v:nameU="ArrowType" v:prompt="" v:val="VT0(2):26"/>
			</v:userDefs>
			<g id="shadow70-288" v:groupContext="shadow" v:shadowOffsetX="0.345598" v:shadowOffsetY="-1.97279" v:shadowType="1"
					transform="matrix(1,0,0,1,1.96212,-0.4018)" class="st1">
				<path d="M0 595.28 L11.34 583.94 L11.34 589.61 L19.85 589.61 L19.85 595.28 L19.85 600.94 L11.34 600.94 L11.34 606.61
							 L0 595.28 Z" class="st8"/>
			</g>
			<path d="M0 595.28 L11.34 583.94 L11.34 589.61 L19.85 589.61 L19.85 595.28 L19.85 600.94 L11.34 600.94 L11.34 606.61
						 L0 595.28 Z" class="st9"/>
		</g>
	</g>
</svg>
